Filename:
Just Wright CAM XViD - IMAGiNE
 
http://www.imdb.com/title/tt1407061/

DETAILS:

Video
ID                               : 0
Format                           : MPEG-4 Visual
Format profile                   : Advanced Simple@L5
Format settings, BVOP            : Yes
Format settings, QPel            : No
Format settings, GMC             : No warppoints
Format settings, Matrix          : Default (MPEG)
Muxing mode                      : Packed bitstream
Codec ID                         : XVID
Codec ID/Hint                    : XviD
Duration                         : 1h 35mn
Bit rate                         : 764 Kbps
Width                            : 528 pixels
Height                           : 224 pixels
Display aspect ratio             : 2.35
Frame rate                       : 23.976 fps
Resolution                       : 24 bits
Colorimetry                      : 4:2:0
Scan type                        : Progressive
Bits/(Pixel*Frame)               : 0.269
Stream size                      : 523 MiB (74%)
Writing library                  : XviD 1.2.1 (UTC 2008-12-04)

Audio
ID                               : 1
Format                           : AC-3
Format/Info                      : Audio Coding 3
Codec ID                         : 2000
Duration                         : 1h 35mn
Bit rate mode                    : Constant
Bit rate                         : 256 Kbps
Channel(s)                       : 2 channels
Channel positions                : L R
Sampling rate                    : 48.0 KHz
Stream size                      : 175 MiB (25%)
Alignment                        : Aligned on interleaves
Interleave, duration             : 42 ms (1.00 video frame)
Interleave, preload duration     : 512 ms


NOTES:

IMAGiNE bringing you another release.....Just Wright

Firstly sourced used was a dvdr by nogrp so thanks to whoever ;-)
Right considering things are a bit slow on releases we thought we'd just do some cleaning up for now
The source had a really low res and had lots of faults....so we tried to clean it up the best we could.
We used a deflicker,deblocker,balance the rgb colours out,toned down the glares etc....
The audio we just left as it was so ......
